<?xml version="1.0" encoding="UTF-8" standalone="no"?>
<!-- Created with Inkscape (http://www.inkscape.org/) -->

<svg
   width="2194.0447mm"
   height="349.04306mm"
   viewBox="0 0 2194.0447 349.04306"
   version="1.1"
   id="svg1"
   inkscape:version="1.3.2 (091e20e, 2023-11-25, custom)"
   sodipodi:docname="TB banner &amp; button click states (4).svg"
   xml:space="preserve"
   inkscape:export-filename="..\OneDrive\Documents\cunting your nan\favicon."
   inkscape:export-xdpi="96"
   inkscape:export-ydpi="96"
   xmlns:inkscape="http://www.inkscape.org/namespaces/inkscape"
   xmlns:sodipodi="http://sodipodi.sourceforge.net/DTD/sodipodi-0.dtd"
   xmlns="http://www.w3.org/2000/svg"
   xmlns:svg="http://www.w3.org/2000/svg"><sodipodi:namedview
     id="namedview1"
     pagecolor="#000000"
     bordercolor="#000000"
     borderopacity="0.25"
     inkscape:showpageshadow="2"
     inkscape:pageopacity="0.0"
     inkscape:pagecheckerboard="0"
     inkscape:deskcolor="#000000"
     inkscape:document-units="mm"
     inkscape:zoom="0.31939087"
     inkscape:cx="-7324.8806"
     inkscape:cy="4308.2008"
     inkscape:window-width="2428"
     inkscape:window-height="1360"
     inkscape:window-x="0"
     inkscape:window-y="0"
     inkscape:window-maximized="0"
     inkscape:current-layer="layer1"
     showguides="false"><inkscape:page
       x="0"
       y="0"
       width="2194.0447"
       height="349.04306"
       id="page2"
       margin="0"
       bleed="0" /></sodipodi:namedview><defs
     id="defs1"><linearGradient
       id="swatch15"
       inkscape:swatch="solid"><stop
         style="stop-color:#ffffff;stop-opacity:1;"
         offset="0"
         id="stop16" /></linearGradient></defs><g
     inkscape:label="Layer 1"
     inkscape:groupmode="layer"
     id="layer1"
     transform="translate(2470.1455,4544.3399)"><path
       sodipodi:type="star"
       style="fill:#142131;fill-opacity:1;fill-rule:evenodd;stroke-width:2.80001;stroke-linecap:round;stroke-linejoin:round"
       id="path62-5-1-14"
       inkscape:flatsided="true"
       sodipodi:sides="6"
       sodipodi:cx="-3494.4656"
       sodipodi:cy="1751.033"
       sodipodi:r1="28.539242"
       sodipodi:r2="14.269621"
       sodipodi:arg1="0.78539816"
       sodipodi:arg2="1.3089969"
       inkscape:rounded="0"
       inkscape:randomized="0"
       d="m -3474.2853,1771.2133 -27.5668,7.3864 -20.1803,-20.1802 7.3865,-27.5668 27.5668,-7.3865 20.1803,20.1803 z"
       inkscape:transform-center-x="3.5508425"
       inkscape:transform-center-y="-3.5506863"
       transform="matrix(0.96145755,0,0,0.96145755,1359.8522,-6192.6228)"
       inkscape:export-filename="..\OneDrive\Documents\cunting your nan\TT ALogo.svg"
       inkscape:export-xdpi="96"
       inkscape:export-ydpi="96" /><path
       sodipodi:type="star"
       style="fill:#90b0d4;fill-opacity:1;fill-rule:evenodd;stroke-width:2.80001;stroke-linecap:round;stroke-linejoin:round"
       id="path62-5-2-15-2"
       inkscape:flatsided="true"
       sodipodi:sides="6"
       sodipodi:cx="-3494.4656"
       sodipodi:cy="1751.033"
       sodipodi:r1="28.539242"
       sodipodi:r2="14.269621"
       sodipodi:arg1="0.78539816"
       sodipodi:arg2="1.3089969"
       inkscape:rounded="0"
       inkscape:randomized="0"
       d="m -3474.2853,1771.2133 -27.5668,7.3864 -20.1803,-20.1802 7.3865,-27.5668 27.5668,-7.3865 20.1803,20.1803 z"
       inkscape:transform-center-x="3.5509535"
       inkscape:transform-center-y="-3.5507228"
       transform="matrix(0.96145755,0,0,0.96145755,1372.1528,-6146.7161)" /><path
       sodipodi:type="star"
       style="fill:#314f77;fill-opacity:1;fill-rule:evenodd;stroke-width:2.80001;stroke-linecap:round;stroke-linejoin:round"
       id="path62-5-2-1-12-7"
       inkscape:flatsided="true"
       sodipodi:sides="6"
       sodipodi:cx="-3494.4656"
       sodipodi:cy="1751.033"
       sodipodi:r1="28.539242"
       sodipodi:r2="14.269621"
       sodipodi:arg1="0.78539816"
       sodipodi:arg2="1.3089969"
       inkscape:rounded="0"
       inkscape:randomized="0"
       d="m -3474.2853,1771.2133 -27.5668,7.3864 -20.1803,-20.1802 7.3865,-27.5668 27.5668,-7.3865 20.1803,20.1803 z"
       inkscape:transform-center-x="3.5509274"
       inkscape:transform-center-y="-3.5510515"
       transform="matrix(0.96145755,0,0,0.96145755,1405.7591,-6180.3225)" /><path
       sodipodi:type="star"
       style="fill:#142131;fill-opacity:1;fill-rule:evenodd;stroke-width:2.80001;stroke-linecap:round;stroke-linejoin:round"
       id="path62-5-1-1-2"
       inkscape:flatsided="true"
       sodipodi:sides="6"
       sodipodi:cx="-3494.4656"
       sodipodi:cy="1751.033"
       sodipodi:r1="28.539242"
       sodipodi:r2="14.269621"
       sodipodi:arg1="0.78539816"
       sodipodi:arg2="1.3089969"
       inkscape:rounded="0"
       inkscape:randomized="0"
       d="m -3474.2853,1771.2133 -27.5668,7.3864 -20.1803,-20.1802 7.3865,-27.5668 27.5668,-7.3865 20.1803,20.1803 z"
       inkscape:transform-center-x="-1.3175531"
       inkscape:transform-center-y="-4.8458317"
       transform="matrix(0.47764832,0.83441758,-0.83441758,0.47764832,1255.6522,-2438.396)"
       inkscape:export-filename="..\OneDrive\Documents\cunting your nan\TT Logo.svg"
       inkscape:export-xdpi="96"
       inkscape:export-ydpi="96" /><path
       sodipodi:type="star"
       style="fill:#90b0d4;fill-opacity:1;fill-rule:evenodd;stroke-width:2.80001;stroke-linecap:round;stroke-linejoin:round"
       id="path62-5-2-15-3-1"
       inkscape:flatsided="true"
       sodipodi:sides="6"
       sodipodi:cx="-3494.4656"
       sodipodi:cy="1751.033"
       sodipodi:r1="28.539242"
       sodipodi:r2="14.269621"
       sodipodi:arg1="0.78539816"
       sodipodi:arg2="1.3089969"
       inkscape:rounded="0"
       inkscape:randomized="0"
       d="m -3474.2853,1771.2133 -27.5668,7.3864 -20.1803,-20.1802 7.3865,-27.5668 27.5668,-7.3865 20.1803,20.1803 z"
       inkscape:transform-center-x="-1.3175642"
       inkscape:transform-center-y="-4.8457964"
       transform="matrix(0.47764832,0.83441758,-0.83441758,0.47764832,1221.9222,-2404.9143)" /><path
       sodipodi:type="star"
       style="fill:#314f77;fill-opacity:1;fill-rule:evenodd;stroke-width:2.80001;stroke-linecap:round;stroke-linejoin:round"
       id="path62-5-2-1-12-3-0"
       inkscape:flatsided="true"
       sodipodi:sides="6"
       sodipodi:cx="-3494.4656"
       sodipodi:cy="1751.033"
       sodipodi:r1="28.539242"
       sodipodi:r2="14.269621"
       sodipodi:arg1="0.78539816"
       sodipodi:arg2="1.3089969"
       inkscape:rounded="0"
       inkscape:randomized="0"
       d="m -3474.2853,1771.2133 -27.5668,7.3864 -20.1803,-20.1802 7.3865,-27.5668 27.5668,-7.3865 20.1803,20.1803 z"
       inkscape:transform-center-x="-1.3176889"
       inkscape:transform-center-y="-4.8458444"
       transform="matrix(0.47764832,0.83441758,-0.83441758,0.47764832,1267.7834,-2392.4439)" /><path
       sodipodi:type="star"
       style="fill:#90b0d4;fill-opacity:1;fill-rule:evenodd;stroke-width:2.80001;stroke-linecap:round;stroke-linejoin:round"
       id="path62-5-2-15-4-96"
       inkscape:flatsided="true"
       sodipodi:sides="6"
       sodipodi:cx="-3494.4656"
       sodipodi:cy="1751.033"
       sodipodi:r1="28.539242"
       sodipodi:r2="14.269621"
       sodipodi:arg1="0.78539816"
       sodipodi:arg2="1.3089969"
       inkscape:rounded="0"
       inkscape:randomized="0"
       d="m -3474.2853,1771.2133 -27.5668,7.3864 -20.1803,-20.1802 7.3865,-27.5668 27.5668,-7.3865 20.1803,20.1803 z"
       inkscape:transform-center-x="-61.300538"
       inkscape:transform-center-y="-15.518495"
       transform="matrix(-0.96145755,0,0,-0.96145755,-3718.614,-2812.899)" /><path
       sodipodi:type="star"
       style="fill:#314f77;fill-opacity:1;fill-rule:evenodd;stroke-width:2.80001;stroke-linecap:round;stroke-linejoin:round"
       id="path62-5-2-1-12-5-5"
       inkscape:flatsided="true"
       sodipodi:sides="6"
       sodipodi:cx="-3494.4656"
       sodipodi:cy="1751.033"
       sodipodi:r1="28.539242"
       sodipodi:r2="14.269621"
       sodipodi:arg1="0.78539816"
       sodipodi:arg2="1.3089969"
       inkscape:rounded="0"
       inkscape:randomized="0"
       d="m -3474.2853,1771.2133 -27.5668,7.3864 -20.1803,-20.1802 7.3865,-27.5668 27.5668,-7.3865 20.1803,20.1803 z"
       inkscape:transform-center-x="-27.694238"
       inkscape:transform-center-y="18.087845"
       transform="matrix(-0.96145755,0,0,-0.96145755,-3752.2203,-2779.2927)" /><path
       sodipodi:type="star"
       style="fill:#90b0d4;fill-opacity:1;fill-rule:evenodd;stroke-width:2.80001;stroke-linecap:round;stroke-linejoin:round"
       id="path62-5-2-15-3-2-8"
       inkscape:flatsided="true"
       sodipodi:sides="6"
       sodipodi:cx="-3494.4656"
       sodipodi:cy="1751.033"
       sodipodi:r1="28.539242"
       sodipodi:r2="14.269621"
       sodipodi:arg1="0.78539816"
       sodipodi:arg2="1.3089969"
       inkscape:rounded="0"
       inkscape:randomized="0"
       d="m -3474.2853,1771.2133 -27.5668,7.3864 -20.1803,-20.1802 7.3865,-27.5668 27.5668,-7.3865 20.1803,20.1803 z"
       inkscape:transform-center-x="18.031112"
       inkscape:transform-center-y="5.688958"
       transform="matrix(-0.47764832,-0.83441756,0.83441756,-0.47764832,-3568.3836,-6554.701)" /><path
       sodipodi:type="star"
       style="fill:#142131;fill-opacity:1;fill-rule:evenodd;stroke-width:2.80001;stroke-linecap:round;stroke-linejoin:round"
       id="path62-5-2-1-12-3-3-2"
       inkscape:flatsided="true"
       sodipodi:sides="6"
       sodipodi:cx="-3494.4656"
       sodipodi:cy="1751.033"
       sodipodi:r1="28.539242"
       sodipodi:r2="14.269621"
       sodipodi:arg1="0.78539816"
       sodipodi:arg2="1.3089969"
       inkscape:rounded="0"
       inkscape:randomized="0"
       d="m -3474.2853,1771.2133 -27.5668,7.3864 -20.1803,-20.1802 7.3865,-27.5668 27.5668,-7.3865 20.1803,20.1803 z"
       inkscape:transform-center-x="63.892213"
       inkscape:transform-center-y="-6.781342"
       transform="matrix(-0.47764832,-0.83441756,0.83441756,-0.47764832,-3614.2447,-6567.1713)" /><path
       d="m -674.70493,-4415.1656 v 145.2598 h 39.127 v -145.2598 z"
       style="font-weight:bold;font-size:50.8px;font-family:'Mark Pro';-inkscape-font-specification:'Mark Pro Bold';fill:#ffffff;fill-opacity:1;fill-rule:evenodd;stroke-width:16.5253;stroke-linecap:round;stroke-linejoin:round"
       id="path57-9-5" /><path
       d="m -359.45125,-4419.0632 c -8.7944,0 -17.237,1.7977 -25.332,5.3955 -8.095,3.5978 -15.2416,8.5937 -21.438,14.9901 -6.096,6.2961 -10.9934,14.1415 -14.6909,23.5355 -3.5978,9.2943 -5.3955,19.3894 -5.3955,30.2825 0,10.7933 1.7977,20.8879 5.3955,30.2825 3.6975,9.3941 8.5949,17.2365 14.6909,23.5326 6.1964,6.2961 13.343,11.246 21.438,14.8438 8.095,3.5978 16.5376,5.3955 25.332,5.3955 19.0884,0 33.9812,-6.5464 44.6748,-19.6385 v 10.1926 c 0,12.1926 -3.7991,21.6374 -11.3948,28.3337 -7.4953,6.7954 -17.4878,10.1925 -29.9803,10.1925 -16.9891,0 -32.9802,-4.947 -47.971,-14.8409 l -13.9414,31.9321 c 7.9953,5.5968 17.6384,9.8939 28.9316,12.8921 11.2926,3.0978 22.8385,4.6483 34.631,4.6483 24.08491,0 43.1733,-6.6981 57.2646,-20.09 14.0913,-13.2916 21.1358,-31.529 21.1358,-54.7145 v -133.2678 h -38.37689 v 16.1888 c -10.7933,-13.3913 -25.7853,-20.0864 -44.97341,-20.0864 z m 9.8968,35.9766 c 10.7934,0 19.5364,3.6474 26.2321,10.9427 6.796,7.1955 10.1925,16.2909 10.1925,27.2843 0,10.8931 -3.3965,19.9885 -10.1925,27.2843 -6.796,7.1956 -15.5385,10.7935 -26.2321,10.7935 -10.8931,0 -19.7382,-3.6504 -26.5336,-10.9463 -6.6963,-7.2953 -10.0468,-16.3382 -10.0468,-27.1315 0,-10.7933 3.3505,-19.8391 10.0468,-27.135 6.7954,-7.3951 15.6405,-11.092 26.5336,-11.092 z"
       style="font-weight:bold;font-size:50.8px;font-family:'Mark Pro';-inkscape-font-specification:'Mark Pro Bold';fill:#ffffff;fill-opacity:1;fill-rule:evenodd;stroke-width:16.5253;stroke-linecap:round;stroke-linejoin:round"
       id="path56-7-2" /><path
       d="m -513.70485,-4419.0632 c -19.0879,0 -33.3285,6.9949 -42.7225,20.9864 v -17.0888 h -38.07768 v 145.2598 h 39.12708 v -79.6015 c 0,-10.4935 2.8984,-18.5868 8.6946,-24.2833 5.7968,-5.6964 13.14111,-8.5459 22.0358,-8.5459 8.99441,0 15.9398,2.8495 20.8365,8.5459 4.9972,5.5962 7.4966,13.5903 7.4966,23.9841 v 79.9007 h 39.1241 v -92.4936 c 0,-16.7896 -5.2964,-30.43 -15.8902,-40.9235 -10.4935,-10.4936 -24.0348,-15.7403 -40.6243,-15.7403 z"
       style="font-weight:bold;font-size:50.8px;font-family:'Mark Pro';-inkscape-font-specification:'Mark Pro Bold';fill:#ffffff;fill-opacity:1;fill-rule:evenodd;stroke-width:16.5253;stroke-linecap:round;stroke-linejoin:round"
       id="path55-6-2" /><path
       d="m -1757.4867,-4420.8627 c -20.0876,0 -35.7264,4.2971 -46.9193,12.892 -11.0931,8.5949 -16.6403,20.6879 -16.6403,36.2783 0,13.1918 4.198,23.5838 12.5928,31.1789 8.4952,7.4954 21.5844,12.5445 39.2734,15.1425 l 8.546,1.1986 c 8.6946,1.299 14.7399,2.6978 18.1376,4.1969 3.3977,1.3987 5.0992,3.4998 5.0992,6.2978 0,6.396 -6.8462,9.5919 -20.5379,9.5919 -19.0879,0 -36.3786,-4.5971 -51.8692,-13.7916 l -16.3381,36.2783 c 15.7904,10.294 38.4235,15.4416 67.9057,15.4416 21.3866,0 38.0771,-4.548 50.0697,-13.6421 11.9926,-9.0942 17.9883,-21.7384 17.9883,-37.9285 0,-12.2924 -4.0965,-22.1857 -12.2912,-29.6811 -8.095,-7.5951 -20.0369,-12.5916 -35.8268,-14.9902 l -10.7939,-1.6501 c -4.4972,-0.6994 -7.8442,-1.2471 -10.0432,-1.6466 -2.0987,-0.4014 -4.4494,-1.0004 -7.048,-1.7995 -2.4983,-0.8003 -4.2464,-1.6998 -5.2456,-2.6995 -0.8994,-1.0996 -1.348,-2.3992 -1.348,-3.8976 0,-5.9969 5.6953,-8.9939 17.0883,-8.9939 14.6909,0.1003 30.8308,3.8988 48.4195,11.3942 l 13.0414,-36.5769 c -12.2924,-4.6979 -22.9843,-7.9457 -32.0784,-9.7452 -8.9945,-1.898 -19.3895,-2.8488 -31.182,-2.8482 z"
       style="font-weight:bold;font-size:50.8px;font-family:'Mark Pro';-inkscape-font-specification:'Mark Pro Bold';fill:#90b0d4;fill-opacity:1;fill-rule:evenodd;stroke-width:16.5253;stroke-linecap:round;stroke-linejoin:round"
       id="path54-5-0" /><path
       d="m -1222.1665,-4421.012 c -18.3884,0 -31.7809,6.9949 -40.1758,20.9864 v -16.9389 h -44.9704 v 147.0587 h 46.9192 v -79.4522 c 0,-8.8947 2.2982,-15.5396 6.8958,-19.9371 4.6967,-4.3975 11.3422,-6.5971 19.9371,-6.5971 7.8949,0 15.7403,1.2996 23.5355,3.8976 l 4.3491,-46.7694 c -5.0969,-1.4991 -10.5939,-2.248 -16.4905,-2.248 z"
       style="font-weight:bold;font-size:50.8px;font-family:'Mark Pro';-inkscape-font-specification:'Mark Pro Bold';fill:#90b0d4;fill-opacity:1;fill-rule:evenodd;stroke-width:16.5253;stroke-linecap:round;stroke-linejoin:round"
       id="path53-7-7" /><path
       d="m -1412.3996,-4421.012 c -22.8857,0 -41.924,7.3443 -57.1148,22.0352 -15.0905,14.6909 -22.636,33.1791 -22.636,55.4652 0,22.286 7.5455,40.7773 22.636,55.4682 15.1908,14.691 34.2291,22.0352 57.1148,22.0352 22.986,0 42.0248,-7.3442 57.1153,-22.0352 15.1908,-14.6909 22.7853,-33.1822 22.7853,-55.4682 0,-22.2861 -7.5945,-40.7743 -22.7853,-55.4652 -15.0905,-14.6909 -34.1293,-22.0352 -57.1153,-22.0352 z m 0,43.7718 c 9.2942,0 16.9389,3.1492 22.9352,9.4453 5.9963,6.2962 8.9939,14.3894 8.9939,24.2833 0,9.8939 -2.9976,17.9901 -8.9939,24.2862 -5.9963,6.2961 -13.641,9.4424 -22.9352,9.4424 -9.194,0 -16.7891,-3.1469 -22.7854,-9.4424 -5.9963,-6.2961 -8.9939,-14.3923 -8.9939,-24.2862 0,-9.8939 2.9976,-17.9871 8.9939,-24.2833 5.9963,-6.2961 13.5914,-9.4453 22.7854,-9.4453 z"
       style="font-weight:bold;font-size:50.8px;font-family:'Mark Pro';-inkscape-font-specification:'Mark Pro Bold';fill:#90b0d4;fill-opacity:1;fill-rule:evenodd;stroke-width:16.5253;stroke-linecap:round;stroke-linejoin:round"
       id="path51-3-0" /><path
       d="m -1578.0474,-4421.012 c -17.8886,0 -31.9309,6.6455 -42.1246,19.9371 v -15.8896 h -45.2727 v 207.0223 h 46.7729 v -73.9049 c 9.9943,11.8928 23.5349,17.8384 40.6244,17.8384 19.488,0 35.7795,-7.4464 48.8716,-22.3369 13.0915,-14.9907 19.6379,-33.4288 19.6379,-55.3153 0,-21.6864 -6.5464,-39.9763 -19.6379,-54.8674 -13.0921,-14.9907 -29.3836,-22.4837 -48.8716,-22.4837 z m -11.2419,43.7718 c 9.2943,0 16.8398,3.1988 22.6366,9.5953 5.896,6.3958 8.8446,14.4395 8.8446,24.1333 0,9.6938 -2.9486,17.741 -8.8446,24.1369 -5.7968,6.3958 -13.3423,9.5917 -22.6366,9.5917 -9.1939,0 -16.7395,-3.1469 -22.636,-9.4424 -5.7963,-6.3959 -8.6953,-14.4921 -8.6953,-24.2862 0,-9.7942 2.899,-17.8372 8.6953,-24.1333 5.8965,-6.3965 13.4421,-9.5953 22.636,-9.5953 z"
       style="font-weight:bold;font-size:50.8px;font-family:'Mark Pro';-inkscape-font-specification:'Mark Pro Bold';fill:#90b0d4;fill-opacity:1;fill-rule:evenodd;stroke-width:16.5253;stroke-linecap:round;stroke-linejoin:round"
       id="path50-7-9" /><path
       d="m -1901.9957,-4421.012 c -20.188,0 -34.7809,7.493 -43.7754,22.4837 v -18.4362 h -44.9699 v 147.0587 h 46.9193 v -79.1506 c 0,-9.0942 2.2486,-15.99 6.7458,-20.6873 4.4973,-4.797 10.1932,-7.1973 17.0889,-7.1973 7.2953,0 12.9942,2.3507 17.0912,7.048 4.0977,4.6973 6.1457,11.3918 6.1457,20.0865 v 79.9007 h 46.9222 v -96.5417 c 0,-16.5889 -4.947,-29.8304 -14.8409,-39.7243 -9.7935,-9.8939 -22.2364,-14.8408 -37.3269,-14.8402 z"
       style="font-weight:bold;font-size:50.8px;font-family:'Mark Pro';-inkscape-font-specification:'Mark Pro Bold';fill:#90b0d4;fill-opacity:1;fill-rule:evenodd;stroke-width:16.5253;stroke-linecap:round;stroke-linejoin:round"
       id="path49-6-2" /><path
       d="m -2111.1167,-4421.012 c -12.892,0 -24.586,3.4467 -35.0795,10.3424 -10.4935,6.7954 -18.6889,16.0891 -24.5854,27.8816 -5.896,11.7932 -8.8446,24.8357 -8.8446,39.1271 0,21.8865 6.4968,40.3246 19.4886,55.3153 13.0921,14.8911 29.3807,22.3374 48.8681,22.3374 18.0892,0 32.1811,-6.5953 42.2745,-19.7872 v 15.8896 h 45.4219 v -147.0587 h -45.4219 v 15.8896 c -10.1937,-13.2916 -24.2325,-19.9371 -42.1217,-19.9371 z m 11.0926,43.7718 c 9.1939,0 16.7395,3.1988 22.636,9.5953 5.896,6.2961 8.8446,14.3391 8.8446,24.1333 0,9.7941 -2.9486,17.8903 -8.8446,24.2862 -5.8965,6.2961 -13.4421,9.4424 -22.636,9.4424 -9.2943,0 -16.8398,-3.1959 -22.6366,-9.5917 -5.7963,-6.3959 -8.6953,-14.4431 -8.6953,-24.1369 0,-9.6938 2.899,-17.7375 8.6953,-24.1333 5.7968,-6.3965 13.3423,-9.5953 22.6366,-9.5953 z"
       style="font-weight:bold;font-size:50.8px;font-family:'Mark Pro';-inkscape-font-specification:'Mark Pro Bold';fill:#90b0d4;fill-opacity:1;fill-rule:evenodd;stroke-width:16.5253;stroke-linecap:round;stroke-linejoin:round"
       id="path48-7-2" /><path
       d="m -2205.8582,-4421.012 c -18.3885,0 -31.781,6.9949 -40.1758,20.9864 v -16.9389 h -44.9734 v 147.0587 h 46.9222 v -79.4522 c 0,-8.8947 2.2988,-15.5396 6.8957,-19.9371 4.6973,-4.3975 11.3422,-6.5971 19.9371,-6.5971 7.895,0 15.7409,1.2996 23.5361,3.8976 l 4.3456,-46.7694 c -5.0969,-1.4991 -10.591,-2.248 -16.4875,-2.248 z"
       style="font-weight:bold;font-size:50.8px;font-family:'Mark Pro';-inkscape-font-specification:'Mark Pro Bold';fill:#90b0d4;fill-opacity:1;fill-rule:evenodd;stroke-width:16.5253;stroke-linecap:round;stroke-linejoin:round"
       id="path47-2-4" /><path
       d="m -1165.3503,-4459.8398 v 42.8753 h -27.4337 v 41.5238 h 27.4337 v 49.0209 c 0,18.9882 4.7457,33.8284 14.24,44.522 9.4937,10.5933 23.8365,15.8891 43.0246,15.8891 10.9928,0 20.4848,-1.348 28.4795,-4.047 8.095,-2.7986 15.9899,-6.8969 23.6854,-12.2941 l -16.1888,-36.5776 c -10.2935,6.0967 -18.7886,9.1438 -25.4849,9.1438 -13.8912,0 -20.8366,-7.5426 -20.8366,-22.6331 v -43.0246 h 50.219 v -41.5238 h -50.219 v -42.8753 z"
       style="font-weight:bold;font-size:50.8px;font-family:'Mark Pro';-inkscape-font-specification:'Mark Pro Bold';fill:#90b0d4;fill-opacity:1;fill-rule:evenodd;stroke-width:16.5253;stroke-linecap:round;stroke-linejoin:round"
       id="path46-49-6" /><path
       d="m -1049.1744,-4479.7769 v 39.127 h 65.05992 v 170.7441 h 41.8259 v -170.7441 h 65.05985 v -39.127 z"
       style="font-weight:bold;font-size:50.8px;font-family:'Mark Pro';-inkscape-font-specification:'Mark Pro Bold';fill:#ffffff;fill-opacity:1;fill-rule:evenodd;stroke-width:16.5253;stroke-linecap:round;stroke-linejoin:round"
       id="path45-9-4" /><path
       d="m -2470.1451,-4479.7769 v 46.4707 h 62.2116 v 163.4004 h 50.0697 v -163.4004 h 62.0587 v -46.4707 z"
       style="font-weight:bold;font-size:50.8px;font-family:'Mark Pro';-inkscape-font-specification:'Mark Pro Bold';fill:#90b0d4;fill-opacity:1;fill-rule:evenodd;stroke-width:16.5253;stroke-linecap:round;stroke-linejoin:round"
       id="path44-0-4" /><path
       d="m -851.89613,-4485.9226 v 216.0168 h 39.1264 v -79.6015 c 0,-10.4935 2.899,-18.5868 8.6952,-24.2833 5.7968,-5.6964 13.1411,-8.5459 22.0358,-8.5459 8.9945,0 15.9398,2.8495 20.8366,8.5459 4.9971,5.5962 7.4965,13.5903 7.4965,23.9841 v 79.9007 h 39.1241 v -92.4936 c 0,-16.7896 -5.2969,-30.43 -15.8902,-40.9235 -10.4935,-10.4936 -24.0347,-15.7403 -40.6243,-15.7403 -18.4888,0 -32.3794,6.4938 -41.6737,19.4856 v -86.345 z"
       style="font-weight:bold;font-size:50.8px;font-family:'Mark Pro';-inkscape-font-specification:'Mark Pro Bold';fill:#ffffff;fill-opacity:1;fill-rule:evenodd;stroke-width:16.5253;stroke-linecap:round;stroke-linejoin:round"
       id="path30-3-9" /><path
       d="m -655.36863,-4487.8714 c -6.9955,0 -12.8891,2.447 -17.6861,7.3443 -4.7971,4.7971 -7.1974,10.7432 -7.1974,17.8384 0,6.9961 2.4003,12.8927 7.1974,17.6897 4.797,4.797 10.6906,7.1973 17.6861,7.1973 7.09581,0 13.0449,-2.4003 17.8419,-7.1973 4.7971,-4.797 7.19501,-10.6936 7.19501,-17.6897 0,-7.0952 -2.4504,-13.0413 -7.34721,-17.8384 -4.7971,-4.8973 -10.69359,-7.3443 -17.6897,-7.3443 z"
       style="font-weight:bold;font-size:50.8px;font-family:'Mark Pro';-inkscape-font-specification:'Mark Pro Bold';fill:#90b0d4;fill-opacity:1;fill-rule:evenodd;stroke-width:16.5253;stroke-linecap:round;stroke-linejoin:round"
       id="path29-3-9" /><path
       style="fill:#ffffff;fill-opacity:1;fill-rule:evenodd;stroke-width:16.5253;stroke-linecap:round;stroke-linejoin:round"
       d="m -2470.1457,-4433.3062 174.3412,-46.4707 h -174.3412 z"
       id="path62-1-2" /><path
       style="fill:#90b0d4;fill-opacity:1;fill-rule:evenodd;stroke-width:16.5253;stroke-linecap:round;stroke-linejoin:round"
       d="m -1049.1738,-4479.7769 h 171.94508 l -171.94508,39.127 z"
       id="path63-8-2" /><path
       sodipodi:type="star"
       style="fill:#314f77;fill-opacity:1;fill-rule:evenodd;stroke-width:2.80001;stroke-linecap:round;stroke-linejoin:round"
       id="path62-5-2-1-12-0-0"
       inkscape:flatsided="true"
       sodipodi:sides="6"
       sodipodi:cx="-3494.4656"
       sodipodi:cy="1751.033"
       sodipodi:r1="28.539242"
       sodipodi:r2="14.269621"
       sodipodi:arg1="0.78539816"
       sodipodi:arg2="1.3089969"
       inkscape:rounded="0"
       inkscape:randomized="0"
       d="m -3474.2853,1771.2133 -27.5668,7.3864 -20.1803,-20.1802 7.3865,-27.5668 27.5668,-7.3865 20.1803,20.1803 z"
       inkscape:transform-center-x="3.2941903"
       inkscape:transform-center-y="-5.7051681"
       transform="matrix(1.2183141,0.32644626,-0.32644626,1.2183141,3811.9269,-5250.3255)" /><path
       sodipodi:type="star"
       style="fill:#142131;fill-opacity:1;fill-rule:evenodd;stroke-width:2.80001;stroke-linecap:round;stroke-linejoin:round"
       id="path62-5-1-1-4-4"
       inkscape:flatsided="true"
       sodipodi:sides="6"
       sodipodi:cx="-3494.4656"
       sodipodi:cy="1751.033"
       sodipodi:r1="28.539242"
       sodipodi:r2="14.269621"
       sodipodi:arg1="0.78539816"
       sodipodi:arg2="1.3089969"
       inkscape:rounded="0"
       inkscape:randomized="0"
       d="m -3474.2853,1771.2133 -27.5668,7.3864 -20.1803,-20.1802 7.3865,-27.5668 27.5668,-7.3865 20.1803,20.1803 z"
       inkscape:transform-center-x="-3.3147984"
       inkscape:transform-center-y="-5.6932479"
       transform="matrix(0.32194155,1.2195122,-1.2195122,0.32194155,2351.2122,-559.69757)"
       inkscape:export-filename="..\OneDrive\Documents\cunting your nan\TT Logo.svg"
       inkscape:export-xdpi="96"
       inkscape:export-ydpi="96" /><path
       sodipodi:type="star"
       style="fill:#90b0d4;fill-opacity:1;fill-rule:evenodd;stroke-width:2.80001;stroke-linecap:round;stroke-linejoin:round"
       id="path62-5-2-15-3-29-6"
       inkscape:flatsided="true"
       sodipodi:sides="6"
       sodipodi:cx="-3494.4656"
       sodipodi:cy="1751.033"
       sodipodi:r1="28.539242"
       sodipodi:r2="14.269621"
       sodipodi:arg1="0.78539816"
       sodipodi:arg2="1.3089969"
       inkscape:rounded="0"
       inkscape:randomized="0"
       d="m -3474.2853,1771.2133 -27.5668,7.3864 -20.1803,-20.1802 7.3865,-27.5668 27.5668,-7.3865 20.1803,20.1803 z"
       inkscape:transform-center-x="-3.3148301"
       inkscape:transform-center-y="-5.6932819"
       transform="matrix(0.32194155,1.2195122,-1.2195122,0.32194155,2297.103,-528.72357)" /></g></svg>
