<?xml version="1.0" encoding="UTF-8" standalone="no"?>
<!-- Created with Inkscape (http://www.inkscape.org/) -->

<svg
   width="4248.77mm"
   height="105.35694mm"
   viewBox="0 0 4248.77 105.35694"
   version="1.1"
   id="svg1"
   inkscape:version="1.3.2 (091e20e, 2023-11-25, custom)"
   sodipodi:docname="TB banner &amp; button click states (3).svg"
   xml:space="preserve"
   inkscape:export-filename="..\OneDrive\Documents\cunting your nan\administration panel background texture.svg"
   inkscape:export-xdpi="96"
   inkscape:export-ydpi="96"
   xmlns:inkscape="http://www.inkscape.org/namespaces/inkscape"
   xmlns:sodipodi="http://sodipodi.sourceforge.net/DTD/sodipodi-0.dtd"
   xmlns:xlink="http://www.w3.org/1999/xlink"
   xmlns="http://www.w3.org/2000/svg"
   xmlns:svg="http://www.w3.org/2000/svg"><sodipodi:namedview
     id="namedview1"
     pagecolor="#000000"
     bordercolor="#000000"
     borderopacity="0.25"
     inkscape:showpageshadow="2"
     inkscape:pageopacity="0.0"
     inkscape:pagecheckerboard="0"
     inkscape:deskcolor="#000000"
     inkscape:document-units="mm"
     inkscape:zoom="0.039923859"
     inkscape:cx="-7351.4937"
     inkscape:cy="-2204.1957"
     inkscape:window-width="2428"
     inkscape:window-height="1360"
     inkscape:window-x="-7"
     inkscape:window-y="0"
     inkscape:window-maximized="0"
     inkscape:current-layer="layer1"
     showguides="false"><inkscape:page
       x="0"
       y="0"
       width="4248.77"
       height="105.35694"
       id="page2"
       margin="0"
       bleed="0" /></sodipodi:namedview><defs
     id="defs1"><linearGradient
       id="linearGradient367"
       inkscape:collect="always"><stop
         style="stop-color:#233956;stop-opacity:1;"
         offset="0.39726028"
         id="stop365" /><stop
         style="stop-color:#283f61;stop-opacity:1;"
         offset="0.5"
         id="stop366" /><stop
         style="stop-color:#233956;stop-opacity:1;"
         offset="0.5972603"
         id="stop367" /></linearGradient><linearGradient
       id="swatch15"
       inkscape:swatch="solid"><stop
         style="stop-color:#ffffff;stop-opacity:1;"
         offset="0"
         id="stop16" /></linearGradient><linearGradient
       inkscape:collect="always"
       xlink:href="#linearGradient367"
       id="linearGradient364"
       gradientUnits="userSpaceOnUse"
       x1="-2501.5134"
       y1="1026.7393"
       x2="1747.2567"
       y2="1132.0963"
       gradientTransform="translate(-387.71935,-281.40821)" /></defs><g
     inkscape:label="Layer 1"
     inkscape:groupmode="layer"
     id="layer1"
     transform="translate(2889.233,-745.33125)"><path
       id="path333-1"
       style="fill:url(#linearGradient364);fill-opacity:1;fill-rule:evenodd;stroke-width:2.80001;stroke-linecap:round;stroke-linejoin:round"
       d="m -2889.2329,745.33119 v 105.35692 h 382.5312 c 15.0513,-29.7541 15.7061,-71.61172 21.4556,-105.35692 z m 403.9868,0 c -5.7495,33.7452 -6.4043,75.60282 -21.4556,105.35692 H 977.0061 C 961.9548,820.93401 961.3,779.07639 955.5505,745.33119 Z m 3440.7966,0 c 5.7495,33.7452 6.4043,75.60282 21.4556,105.35692 h 382.5312 V 745.33119 Z"
       inkscape:export-filename="..\OneDrive\Documents\cunting your nan\TT Banner.png"
       inkscape:export-xdpi="96"
       inkscape:export-ydpi="96" /><path
       d="m -2563.0332,810.11181 47.7588,-12.79719 -47.7588,12.79669 z"
       style="fill:#339fbb;fill-rule:evenodd;stroke-width:2.80001;stroke-linecap:round;stroke-linejoin:round"
       id="path81-76"
       inkscape:export-filename="..\OneDrive\Documents\cunting your nan\TT Banner.svg"
       inkscape:export-xdpi="96"
       inkscape:export-ydpi="96" /><path
       d="m -2485.2462,850.68811 4.9335,-18.4113 -34.9617,-34.96219 -47.7588,12.79719 -10.8727,40.5763 z"
       style="fill:#314f77;fill-opacity:1;fill-rule:evenodd;stroke-width:2.80001;stroke-linecap:round;stroke-linejoin:round"
       id="path80-8" /><path
       d="m -2590.0052,745.33124 -7.9897,29.81838 34.9617,34.96169 47.7588,-12.79669 12.7972,-47.75878 -4.2246,-4.2246 z"
       style="fill:#90b0d4;fill-opacity:1;fill-rule:evenodd;stroke-width:2.80001;stroke-linecap:round;stroke-linejoin:round"
       id="path78-90" /><path
       d="m -2748.9257,745.33124 20.4504,20.45048 47.7594,-12.79718 34.9616,34.96218 47.7589,-12.7966 34.9622,34.96119 -34.9617,-34.96169 7.9897,-29.81838 z"
       style="fill:#5480b8;fill-opacity:1;fill-rule:evenodd;stroke-width:2.80001;stroke-linecap:round;stroke-linejoin:round"
       id="path77-9" /><path
       d="m -2871.7518,804.17262 -17.4811,-17.4811 v 63.99659 h 5.0172 z"
       style="fill:#274262;fill-opacity:1;fill-rule:evenodd;stroke-width:2.80001;stroke-linecap:round;stroke-linejoin:round"
       id="path76-86" /><path
       d="m -2871.7518,804.17262 -12.4639,46.51549 h 5e-4 z"
       style="fill:#339fbb;fill-rule:evenodd;stroke-width:2.80001;stroke-linecap:round;stroke-linejoin:round"
       id="path75-80" /><path
       d="m -2823.993,791.37552 12.3378,-46.04428 h -77.5777 v 41.35978 l 17.4811,17.4816 z"
       style="fill:#3d6393;fill-opacity:1;fill-rule:evenodd;stroke-width:2.80001;stroke-linecap:round;stroke-linejoin:round"
       id="path74-4" /><path
       d="m -2789.0308,826.33771 47.7589,-12.7972 12.7966,-47.75879 -20.4504,-20.45048 h -62.7295 l -12.3378,46.04478 z"
       style="fill:#274262;fill-opacity:1;fill-rule:evenodd;stroke-width:2.80001;stroke-linecap:round;stroke-linejoin:round"
       id="path73-26" /><path
       d="m -2795.5554,850.68811 h 88.6597 l 0.5854,-2.1854 -34.9616,-34.9622 -47.7589,12.7972 z"
       style="fill:#314f77;fill-opacity:1;fill-rule:evenodd;stroke-width:2.80001;stroke-linecap:round;stroke-linejoin:round"
       id="path72-9" /><path
       d="m -2795.5554,850.68811 6.5246,-24.3504 -34.9622,-34.96169 v -5e-4 l -47.7588,12.7971 -12.4634,46.51549 z"
       style="fill:#90b0d4;fill-opacity:1;fill-rule:evenodd;stroke-width:2.80001;stroke-linecap:round;stroke-linejoin:round"
       id="path71-24" /><path
       d="m -2658.5514,835.70561 12.7971,-47.75889 -34.9616,-34.96218 -47.7594,12.79718 -12.7966,47.75879 34.9616,34.9622 z"
       style="fill:#233956;fill-opacity:1;fill-rule:evenodd;stroke-width:2.80001;stroke-linecap:round;stroke-linejoin:round"
       id="path68-0" /><path
       d="m -2643.5689,850.68811 h 69.663 l 10.8727,-40.5763 -34.9622,-34.96169 -47.7589,12.7966 -12.7971,47.75889 z"
       style="fill:#3d6393;fill-opacity:1;fill-rule:evenodd;stroke-width:2.80001;stroke-linecap:round;stroke-linejoin:round"
       id="path67-4" /><path
       d="m -2643.5689,850.68811 -14.9825,-14.9825 -47.7583,12.7971 -0.5855,2.1854 z"
       style="fill:#5480b8;fill-opacity:1;fill-rule:evenodd;stroke-width:2.80001;stroke-linecap:round;stroke-linejoin:round"
       id="path66-3" /><path
       d="m 1033.3376,785.90754 -47.75879,12.79719 47.75879,-12.79669 z"
       style="fill:#339fbb;fill-rule:evenodd;stroke-width:2.80001;stroke-linecap:round;stroke-linejoin:round"
       id="path81-76-05"
       inkscape:export-filename="..\OneDrive\Documents\cunting your nan\TT Banner.svg"
       inkscape:export-xdpi="96"
       inkscape:export-ydpi="96" /><path
       d="m 955.55061,745.33124 -4.9335,18.4113 34.9617,34.96219 47.75879,-12.79719 10.8727,-40.5763 z"
       style="fill:#314f77;fill-opacity:1;fill-rule:evenodd;stroke-width:2.80001;stroke-linecap:round;stroke-linejoin:round"
       id="path80-8-66" /><path
       d="m 1060.3096,850.68811 7.9897,-29.81838 -34.9617,-34.96169 -47.75879,12.79669 -12.7972,47.75878 4.2246,4.2246 z"
       style="fill:#90b0d4;fill-opacity:1;fill-rule:evenodd;stroke-width:2.80001;stroke-linecap:round;stroke-linejoin:round"
       id="path78-90-12" /><path
       d="m 1219.2301,850.68811 -20.4504,-20.45048 -47.7594,12.79718 -34.9616,-34.96218 -47.7589,12.7966 -34.9622,-34.96119 34.9617,34.96169 -7.9897,29.81838 z"
       style="fill:#5480b8;fill-opacity:1;fill-rule:evenodd;stroke-width:2.80001;stroke-linecap:round;stroke-linejoin:round"
       id="path77-9-04" /><path
       d="m 1342.0562,791.84673 17.4811,17.4811 v -63.99659 h -5.0172 z"
       style="fill:#274262;fill-opacity:1;fill-rule:evenodd;stroke-width:2.80001;stroke-linecap:round;stroke-linejoin:round"
       id="path76-86-93" /><path
       d="m 1342.0562,791.84673 12.4639,-46.51549 h -5e-4 z"
       style="fill:#339fbb;fill-rule:evenodd;stroke-width:2.80001;stroke-linecap:round;stroke-linejoin:round"
       id="path75-80-0" /><path
       d="m 1294.2974,804.64383 -12.3378,46.04428 h 77.5777 v -41.35978 l -17.4811,-17.4816 z"
       style="fill:#3d6393;fill-opacity:1;fill-rule:evenodd;stroke-width:2.80001;stroke-linecap:round;stroke-linejoin:round"
       id="path74-4-0" /><path
       d="m 1259.3352,769.68164 -47.7589,12.7972 -12.7966,47.75879 20.4504,20.45048 h 62.7295 l 12.3378,-46.04478 z"
       style="fill:#274262;fill-opacity:1;fill-rule:evenodd;stroke-width:2.80001;stroke-linecap:round;stroke-linejoin:round"
       id="path73-26-4" /><path
       d="m 1265.8598,745.33124 h -88.6597 l -0.5854,2.1854 34.9616,34.9622 47.7589,-12.7972 z"
       style="fill:#314f77;fill-opacity:1;fill-rule:evenodd;stroke-width:2.80001;stroke-linecap:round;stroke-linejoin:round"
       id="path72-9-3" /><path
       d="m 1265.8598,745.33124 -6.5246,24.3504 34.9622,34.96169 v 5e-4 l 47.7588,-12.7971 12.4634,-46.51549 z"
       style="fill:#90b0d4;fill-opacity:1;fill-rule:evenodd;stroke-width:2.80001;stroke-linecap:round;stroke-linejoin:round"
       id="path71-24-9" /><path
       d="m 1128.8558,760.31374 -12.7971,47.75889 34.9616,34.96218 47.7594,-12.79718 12.7966,-47.75879 -34.9616,-34.9622 z"
       style="fill:#233956;fill-opacity:1;fill-rule:evenodd;stroke-width:2.80001;stroke-linecap:round;stroke-linejoin:round"
       id="path68-0-7" /><path
       d="m 1113.8733,745.33124 h -69.663 l -10.8727,40.5763 34.9622,34.96169 47.7589,-12.7966 12.7971,-47.75889 z"
       style="fill:#3d6393;fill-opacity:1;fill-rule:evenodd;stroke-width:2.80001;stroke-linecap:round;stroke-linejoin:round"
       id="path67-4-1" /><path
       d="m 1113.8733,745.33124 14.9825,14.9825 47.7583,-12.7971 0.5855,-2.1854 z"
       style="fill:#5480b8;fill-opacity:1;fill-rule:evenodd;stroke-width:2.80001;stroke-linecap:round;stroke-linejoin:round"
       id="path66-3-2" /></g></svg>
