<?xml version="1.0" encoding="UTF-8" standalone="no"?>
<!-- Created with Inkscape (http://www.inkscape.org/) -->

<svg
   width="4248.77mm"
   height="105.3572mm"
   viewBox="0 0 4248.77 105.3572"
   version="1.1"
   id="svg1"
   inkscape:version="1.3.2 (091e20e, 2023-11-25, custom)"
   sodipodi:docname="TB banner &amp; button click states (2).svg"
   xml:space="preserve"
   inkscape:export-filename="..\OneDrive\Documents\cunting your nan\administration panel background texture.svg"
   inkscape:export-xdpi="96"
   inkscape:export-ydpi="96"
   xmlns:inkscape="http://www.inkscape.org/namespaces/inkscape"
   xmlns:sodipodi="http://sodipodi.sourceforge.net/DTD/sodipodi-0.dtd"
   xmlns:xlink="http://www.w3.org/1999/xlink"
   xmlns="http://www.w3.org/2000/svg"
   xmlns:svg="http://www.w3.org/2000/svg"><sodipodi:namedview
     id="namedview1"
     pagecolor="#000000"
     bordercolor="#000000"
     borderopacity="0.25"
     inkscape:showpageshadow="2"
     inkscape:pageopacity="0.0"
     inkscape:pagecheckerboard="0"
     inkscape:deskcolor="#000000"
     inkscape:document-units="mm"
     inkscape:zoom="0.11292173"
     inkscape:cx="-1890.6902"
     inkscape:cy="4764.3622"
     inkscape:window-width="2428"
     inkscape:window-height="1360"
     inkscape:window-x="-7"
     inkscape:window-y="0"
     inkscape:window-maximized="0"
     inkscape:current-layer="layer1"
     showguides="false"><inkscape:page
       x="0"
       y="0"
       width="4248.77"
       height="105.3572"
       id="page2"
       margin="0"
       bleed="0" /></sodipodi:namedview><defs
     id="defs1"><linearGradient
       id="linearGradient362"
       inkscape:collect="always"><stop
         style="stop-color:#0e1621;stop-opacity:1;"
         offset="0.39726028"
         id="stop362" /><stop
         style="stop-color:#131e2d;stop-opacity:1;"
         offset="0.5"
         id="stop364" /><stop
         style="stop-color:#0e1621;stop-opacity:1;"
         offset="0.5972603"
         id="stop363" /></linearGradient><linearGradient
       id="swatch15"
       inkscape:swatch="solid"><stop
         style="stop-color:#ffffff;stop-opacity:1;"
         offset="0"
         id="stop16" /></linearGradient><linearGradient
       inkscape:collect="always"
       xlink:href="#linearGradient362"
       id="linearGradient363"
       x1="-2501.5134"
       y1="1026.7393"
       x2="1747.2567"
       y2="1132.0963"
       gradientUnits="userSpaceOnUse" /></defs><g
     inkscape:label="Layer 1"
     inkscape:groupmode="layer"
     id="layer1"
     transform="translate(2501.5135,-1026.7392)"><path
       id="path333"
       style="fill:url(#linearGradient363);fill-opacity:1;fill-rule:evenodd;stroke-width:2.80001;stroke-linecap:round;stroke-linejoin:round"
       d="m -2501.5135,1026.7394 v 105.3569 h 382.5312 c 15.0513,-29.7541 15.7061,-71.6117 21.4556,-105.3569 z m 403.9868,0 c -5.7495,33.7452 -6.4043,75.6028 -21.4556,105.3569 h 3483.7078 c -15.0513,-29.7541 -15.7061,-71.6117 -21.4556,-105.3569 z m 3440.7966,0 c 5.7495,33.7452 6.4043,75.6028 21.4556,105.3569 h 382.5312 v -105.3569 z" /><path
       d="m -2175.3138,1091.5199 47.7589,-12.7972 -47.7589,12.7967 z"
       style="fill:#339fbb;fill-rule:evenodd;stroke-width:2.80001;stroke-linecap:round;stroke-linejoin:round"
       id="path81-4-9"
       inkscape:export-filename="..\OneDrive\Documents\cunting your nan\TT BannerDM.svg"
       inkscape:export-xdpi="96"
       inkscape:export-ydpi="96" /><path
       d="m -2097.5267,1132.0962 4.9335,-18.4113 -34.9617,-34.9622 -47.7589,12.7972 -10.8727,40.5763 z"
       style="fill:#233956;fill-opacity:1;fill-rule:evenodd;stroke-width:2.80001;stroke-linecap:round;stroke-linejoin:round"
       id="path80-4-1" /><path
       d="m -2202.2858,1026.7393 -7.9897,29.8184 34.9617,34.9617 47.7588,-12.7967 12.7972,-47.7588 -4.2246,-4.2246 z"
       style="fill:#080d13;fill-opacity:1;fill-rule:evenodd;stroke-width:2.80001;stroke-linecap:round;stroke-linejoin:round"
       id="path78-1-6" /><path
       d="m -2361.2063,1026.7393 20.4504,20.4505 47.7594,-12.7972 34.9616,34.9622 47.7589,-12.7966 34.9622,34.9612 -34.9617,-34.9617 7.9897,-29.8185 z"
       style="fill:#233956;fill-opacity:1;fill-rule:evenodd;stroke-width:2.80001;stroke-linecap:round;stroke-linejoin:round"
       id="path77-52-4" /><path
       d="m -2484.0324,1085.5807 -17.4811,-17.4811 v 63.9966 h 5.0172 z"
       style="fill:#314f77;fill-opacity:1;fill-rule:evenodd;stroke-width:2.80001;stroke-linecap:round;stroke-linejoin:round"
       id="path76-1-7" /><path
       id="path75-1-1"
       style="fill:#142131;fill-opacity:1;fill-rule:evenodd;stroke-width:2.80001;stroke-linecap:round;stroke-linejoin:round"
       d="m -2484.0324,1085.5807 -12.4639,46.5155 h 5e-4 z m 76.1964,46.5155 6.5244,-24.3502 -34.9617,-34.9622 -47.7589,12.7972 -12.4636,46.5152 z" /><path
       d="m -2436.2736,1072.7836 12.3378,-46.0443 h -77.5777 v 41.3598 l 17.4811,17.4816 z"
       style="fill:#0c151f;fill-opacity:1;fill-rule:evenodd;stroke-width:2.80001;stroke-linecap:round;stroke-linejoin:round"
       id="path74-0-8" /><path
       d="m -2401.3114,1107.7458 47.7589,-12.7972 12.7966,-47.7588 -20.4504,-20.4505 h -62.7295 l -12.3378,46.0448 z"
       style="fill:#080d13;fill-opacity:1;fill-rule:evenodd;stroke-width:2.80001;stroke-linecap:round;stroke-linejoin:round"
       id="path73-1-1" /><path
       d="m -2407.836,1132.0962 h 88.6597 l 0.5854,-2.1854 -34.9616,-34.9622 -47.7589,12.7972 z"
       style="fill:#233956;fill-opacity:1;fill-rule:evenodd;stroke-width:2.80001;stroke-linecap:round;stroke-linejoin:round"
       id="path72-53-0" /><path
       d="m -2407.836,1132.0962 6.5246,-24.3504 -34.9622,-34.9617 v -6e-4 l -47.7588,12.7972 -12.4634,46.5155 z"
       style="fill:#000000;fill-opacity:0;fill-rule:evenodd;stroke-width:2.80001;stroke-linecap:round;stroke-linejoin:round"
       id="path71-7-8" /><path
       d="m -2270.832,1117.1137 12.7971,-47.7589 -34.9616,-34.9622 -47.7594,12.7972 -12.7966,47.7588 34.9616,34.9622 z"
       style="fill:#0c151f;fill-opacity:1;fill-rule:evenodd;stroke-width:2.80001;stroke-linecap:round;stroke-linejoin:round"
       id="path68-7-2" /><path
       d="m -2255.8495,1132.0962 h 69.663 l 10.8727,-40.5763 -34.9622,-34.9617 -47.7589,12.7966 -12.7971,47.7589 z"
       style="fill:#142131;fill-opacity:1;fill-rule:evenodd;stroke-width:2.80001;stroke-linecap:round;stroke-linejoin:round"
       id="path67-0-4" /><path
       d="m -2255.8495,1132.0962 -14.9825,-14.9825 -47.7583,12.7971 -0.5855,2.1854 z"
       style="fill:#314f77;fill-opacity:1;fill-rule:evenodd;stroke-width:2.80001;stroke-linecap:round;stroke-linejoin:round"
       id="path66-8-5" /><path
       d="m -2361.2056,1026.7393 20.4504,20.4505 47.7583,-12.7971 2.0507,-7.6534 z"
       style="fill:#314f77;fill-opacity:1;fill-rule:evenodd;stroke-width:2.80001;stroke-linecap:round;stroke-linejoin:round"
       id="path66-8-5-2"
       sodipodi:nodetypes="ccccc" /><path
       d="m 1421.057,1067.3157 -47.7589,12.7972 47.7589,-12.7967 z"
       style="fill:#339fbb;fill-rule:evenodd;stroke-width:2.80001;stroke-linecap:round;stroke-linejoin:round"
       id="path81-4-9-1"
       inkscape:export-filename="..\OneDrive\Documents\cunting your nan\TT BannerDM.svg"
       inkscape:export-xdpi="96"
       inkscape:export-ydpi="96" /><path
       d="m 1343.2699,1026.7394 -4.9335,18.4113 34.9617,34.9622 47.7589,-12.7972 10.8727,-40.5763 z"
       style="fill:#233956;fill-opacity:1;fill-rule:evenodd;stroke-width:2.80001;stroke-linecap:round;stroke-linejoin:round"
       id="path80-4-1-2" /><path
       d="m 1448.029,1132.0963 7.9897,-29.8184 -34.9617,-34.9617 -47.7588,12.7967 -12.7972,47.7588 4.2246,4.2246 z"
       style="fill:#080d13;fill-opacity:1;fill-rule:evenodd;stroke-width:2.80001;stroke-linecap:round;stroke-linejoin:round"
       id="path78-1-6-2" /><path
       d="m 1606.9495,1132.0963 -20.4504,-20.4505 -47.7594,12.7972 -34.9616,-34.9622 -47.7589,12.7966 -34.9622,-34.9612 34.9617,34.9617 -7.9897,29.8185 z"
       style="fill:#233956;fill-opacity:1;fill-rule:evenodd;stroke-width:2.80001;stroke-linecap:round;stroke-linejoin:round"
       id="path77-52-4-5" /><path
       d="m 1729.7756,1073.2549 17.4811,17.4811 v -63.9966 h -5.0172 z"
       style="fill:#314f77;fill-opacity:1;fill-rule:evenodd;stroke-width:2.80001;stroke-linecap:round;stroke-linejoin:round"
       id="path76-1-7-5" /><path
       id="path75-1-1-2"
       style="fill:#142131;fill-opacity:1;fill-rule:evenodd;stroke-width:2.80001;stroke-linecap:round;stroke-linejoin:round"
       d="m 1729.7756,1073.2549 12.4639,-46.5155 h -5e-4 z m -76.1964,-46.5155 -6.5244,24.3502 34.9617,34.9622 47.7589,-12.7972 12.4636,-46.5152 z" /><path
       d="m 1682.0168,1086.052 -12.3378,46.0443 h 77.5777 v -41.3598 l -17.4811,-17.4816 z"
       style="fill:#0c151f;fill-opacity:1;fill-rule:evenodd;stroke-width:2.80001;stroke-linecap:round;stroke-linejoin:round"
       id="path74-0-8-56" /><path
       d="m 1647.0546,1051.0898 -47.7589,12.7972 -12.7966,47.7588 20.4504,20.4505 h 62.7295 l 12.3378,-46.0448 z"
       style="fill:#080d13;fill-opacity:1;fill-rule:evenodd;stroke-width:2.80001;stroke-linecap:round;stroke-linejoin:round"
       id="path73-1-1-8" /><path
       d="m 1653.5792,1026.7394 h -88.6597 l -0.5854,2.1854 34.9616,34.9622 47.7589,-12.7972 z"
       style="fill:#233956;fill-opacity:1;fill-rule:evenodd;stroke-width:2.80001;stroke-linecap:round;stroke-linejoin:round"
       id="path72-53-0-8" /><path
       d="m 1653.5792,1026.7394 -6.5246,24.3504 34.9622,34.9617 v 6e-4 l 47.7588,-12.7972 12.4634,-46.5155 z"
       style="fill:#000000;fill-opacity:0;fill-rule:evenodd;stroke-width:2.80001;stroke-linecap:round;stroke-linejoin:round"
       id="path71-7-8-5" /><path
       d="m 1516.5752,1041.7219 -12.7971,47.7589 34.9616,34.9622 47.7594,-12.7972 12.7966,-47.7588 -34.9616,-34.9622 z"
       style="fill:#0c151f;fill-opacity:1;fill-rule:evenodd;stroke-width:2.80001;stroke-linecap:round;stroke-linejoin:round"
       id="path68-7-2-1" /><path
       d="m 1501.5927,1026.7394 h -69.663 l -10.8727,40.5763 34.9622,34.9617 47.7589,-12.7966 12.7971,-47.7589 z"
       style="fill:#142131;fill-opacity:1;fill-rule:evenodd;stroke-width:2.80001;stroke-linecap:round;stroke-linejoin:round"
       id="path67-0-4-9" /><path
       d="m 1501.5927,1026.7394 14.9825,14.9825 47.7583,-12.7971 0.5855,-2.1854 z"
       style="fill:#314f77;fill-opacity:1;fill-rule:evenodd;stroke-width:2.80001;stroke-linecap:round;stroke-linejoin:round"
       id="path66-8-5-43" /><path
       d="m 1606.9495,1132.0963 -20.4504,-20.4505 -47.7583,12.7971 -2.0507,7.6534 z"
       style="fill:#314f77;fill-opacity:1;fill-rule:evenodd;stroke-width:2.80001;stroke-linecap:round;stroke-linejoin:round"
       id="path66-8-5-2-4"
       sodipodi:nodetypes="ccccc" /></g></svg>
