<?xml version="1.0" encoding="UTF-8" standalone="no"?>
<!-- Created with Inkscape (http://www.inkscape.org/) -->

<svg
   width="490.28531mm"
   height="480.36295mm"
   viewBox="0 0 490.28531 480.36295"
   version="1.1"
   id="svg1"
   inkscape:version="1.4.2 (f4327f4, 2025-05-13)"
   sodipodi:docname="EqIT6qO.svg"
   xml:space="preserve"
   inkscape:export-filename="..\Documents\default_icon_v2.svg"
   inkscape:export-xdpi="96"
   inkscape:export-ydpi="96"
   xmlns:inkscape="http://www.inkscape.org/namespaces/inkscape"
   xmlns:sodipodi="http://sodipodi.sourceforge.net/DTD/sodipodi-0.dtd"
   xmlns:xlink="http://www.w3.org/1999/xlink"
   xmlns="http://www.w3.org/2000/svg"
   xmlns:svg="http://www.w3.org/2000/svg"><sodipodi:namedview
     id="namedview1"
     pagecolor="#000000"
     bordercolor="#000000"
     borderopacity="0.25"
     inkscape:showpageshadow="2"
     inkscape:pageopacity="0.0"
     inkscape:pagecheckerboard="true"
     inkscape:deskcolor="#000000"
     inkscape:document-units="mm"
     inkscape:zoom="0.056568545"
     inkscape:cx="42276.145"
     inkscape:cy="-18853.234"
     inkscape:window-width="1920"
     inkscape:window-height="991"
     inkscape:window-x="-9"
     inkscape:window-y="-9"
     inkscape:window-maximized="1"
     inkscape:current-layer="layer1"
     showguides="false"
     showborder="false"><inkscape:page
       x="0"
       y="0"
       width="490.28531"
       height="480.36295"
       id="page2"
       margin="0"
       bleed="0" /></sodipodi:namedview><defs
     id="defs1"><linearGradient
       id="linearGradient57"
       inkscape:collect="always"><stop
         style="stop-color:#cb8a00;stop-opacity:1;"
         offset="0.40000001"
         id="stop36" /><stop
         style="stop-color:#ffe662;stop-opacity:1;"
         offset="0.5"
         id="stop37" /><stop
         style="stop-color:#cb8a00;stop-opacity:1;"
         offset="0.60000002"
         id="stop38" /></linearGradient><linearGradient
       id="swatch15"
       inkscape:swatch="solid"><stop
         style="stop-color:#ffffff;stop-opacity:1;"
         offset="0"
         id="stop16" /></linearGradient><linearGradient
       inkscape:collect="always"
       xlink:href="#linearGradient57"
       id="linearGradient24"
       gradientUnits="userSpaceOnUse"
       gradientTransform="matrix(0,0.97976301,1.0208451,0,10308.541,-1779.3878)"
       x1="-3824.7219"
       y1="-619.15167"
       x2="-3339.365"
       y2="-138.87868" /></defs><g
     inkscape:label="Layer 1"
     inkscape:groupmode="layer"
     id="layer1"
     transform="translate(-9676.4826,5531.5373)"><path
       id="path75-4"
       style="fill:url(#linearGradient24);fill-rule:evenodd;stroke-width:2.80027;stroke-linecap:round;stroke-linejoin:round"
       d="m 9939.3308,-5531.5364 -0.025,0.089 h -63.592 l 9.1736,34.2372 -57.8632,57.8636 21.1791,79.0438 -57.8636,57.8636 -79.0443,-21.179 -21.1796,-79.0438 v -5e-4 l -13.6328,-3.653 v -54.7636 c -10e-5,-39.0337 32.7414,-70.4577 73.4116,-70.4577 z m -262.8476,125.2213 13.6328,3.653 v 5e-4 l 21.1796,79.0438 79.0443,21.179 57.8636,-57.8636 -21.1791,-79.0438 57.8632,-57.8636 -9.1736,-34.2372 h 63.592 l -7.2089,25.8212 59.0706,56.6931 v 0 l -21.621,77.4434 59.0703,56.6932 80.691,-20.7518 21.622,-77.4433 35.838,-9.2165 v 148.2411 l -26.446,-7.0859 -57.864,57.8642 v 5e-4 l -79.044,-21.1796 -57.8635,57.8637 21.1801,79.0437 79.0434,21.1801 9.407,35.1059 -250.9578,-5e-4 3.729,-13.3568 v 0 l 80.6912,-20.7512 21.6204,-77.4439 -59.0697,-56.6931 -80.6912,20.7506 -59.0698,-56.6926 -34.9509,8.988 z m 0,159.9416 34.9509,-8.988 59.0698,56.6926 80.6912,-20.7506 59.0697,56.6931 -21.6204,77.4439 -80.6912,20.7512 v 0 l -3.729,13.3568 h -55.827 c -39.8401,0 -71.9129,-32.0729 -71.913,-71.9124 z m 127.74,195.199 250.9578,5e-4 h -250.9578 z m 250.9578,5e-4 -9.407,-35.1059 -79.0434,-21.1801 -21.1801,-79.0437 57.8635,-57.8637 79.044,21.1796 v -5e-4 l 57.864,-57.8642 26.446,7.0859 v 152.3344 c 0,39.0338 -32.741,70.4581 -73.411,70.4582 z m 111.587,-371.0337 -35.838,9.2165 -21.622,77.4433 -80.691,20.7518 -59.0703,-56.6932 21.621,-77.4434 v 0 l -59.0706,-56.6931 7.2089,-25.8212 h 155.549 c 39.84,-1e-4 71.913,32.0732 71.913,71.9129 z" /><path
       d="m 9926.4317,-5407.2251 v 35.7358 h 75.6483 v 198.0484 h 37.738 v -198.0484 h 75.646 v -35.7358 z"
       style="font-weight:bold;font-size:333.977px;font-family:'Mark Pro';-inkscape-font-specification:'Mark Pro Bold';fill:#ffffff;fill-opacity:1;stroke-width:1.73947"
       id="path392" /><path
       d="m 9848.2804,-5407.2251 v 144.278 c 0,16.4762 -3.395,28.778 -10.1859,36.9047 -6.7909,8.1268 -16.5319,12.19 -29.223,12.19 -18.4801,0 -33.6205,-7.2359 -45.421,-21.7082 l -27.0521,33.8987 c 17.7008,21.5971 42.5822,32.3954 74.644,32.3954 25.1596,0 45.421,-7.7367 60.7839,-23.211 15.3629,-15.5856 23.0441,-37.6284 23.0441,-66.1277 v -148.6199 z"
       style="font-weight:bold;font-size:333.977px;font-family:'Mark Pro';-inkscape-font-specification:'Mark Pro Bold';fill:#ffe686;fill-opacity:1;stroke-width:1.73947"
       id="path391" /></g></svg>
