<?xml version="1.0" encoding="UTF-8" standalone="no"?>
<!-- Created with Inkscape (http://www.inkscape.org/) -->

<svg
   width="1634.3291mm"
   height="370.09937mm"
   viewBox="0 0 1634.3291 370.09937"
   version="1.1"
   id="svg1"
   inkscape:version="1.4.2 (f4327f4, 2025-05-13)"
   sodipodi:docname="EqIT6qO.svg"
   xml:space="preserve"
   inkscape:export-filename="..\Documents\default_icon_v2.svg"
   inkscape:export-xdpi="96"
   inkscape:export-ydpi="96"
   xmlns:inkscape="http://www.inkscape.org/namespaces/inkscape"
   xmlns:sodipodi="http://sodipodi.sourceforge.net/DTD/sodipodi-0.dtd"
   xmlns:xlink="http://www.w3.org/1999/xlink"
   xmlns="http://www.w3.org/2000/svg"
   xmlns:svg="http://www.w3.org/2000/svg"><sodipodi:namedview
     id="namedview1"
     pagecolor="#000000"
     bordercolor="#000000"
     borderopacity="0.25"
     inkscape:showpageshadow="2"
     inkscape:pageopacity="0.0"
     inkscape:pagecheckerboard="true"
     inkscape:deskcolor="#000000"
     inkscape:document-units="mm"
     inkscape:zoom="0.056568545"
     inkscape:cx="42276.145"
     inkscape:cy="-18853.234"
     inkscape:window-width="1920"
     inkscape:window-height="991"
     inkscape:window-x="-9"
     inkscape:window-y="-9"
     inkscape:window-maximized="1"
     inkscape:current-layer="layer1"
     showguides="false"
     showborder="false"><inkscape:page
       x="0"
       y="0"
       width="1634.3291"
       height="370.09937"
       id="page2"
       margin="0"
       bleed="0" /></sodipodi:namedview><defs
     id="defs1"><linearGradient
       id="linearGradient404"
       inkscape:collect="always"><stop
         style="stop-color:#ffd479;stop-opacity:1;"
         offset="0.40000001"
         id="stop402" /><stop
         style="stop-color:#ffffff;stop-opacity:1;"
         offset="0.5"
         id="stop403" /><stop
         style="stop-color:#ffd479;stop-opacity:1;"
         offset="0.60000002"
         id="stop404" /></linearGradient><linearGradient
       id="linearGradient395"
       inkscape:collect="always"><stop
         style="stop-color:#ffb923;stop-opacity:1;"
         offset="0.40000001"
         id="stop393" /><stop
         style="stop-color:#fff1a4;stop-opacity:1;"
         offset="0.5"
         id="stop394" /><stop
         style="stop-color:#ffb923;stop-opacity:1;"
         offset="0.60000002"
         id="stop395" /></linearGradient><linearGradient
       id="linearGradient387"
       inkscape:collect="always"><stop
         style="stop-color:#ffffff;stop-opacity:1;"
         offset="0.29818183"
         id="stop387" /><stop
         style="stop-color:#f9e89d;stop-opacity:1;"
         offset="0.5"
         id="stop389" /><stop
         style="stop-color:#ffffff;stop-opacity:1;"
         offset="0.70181823"
         id="stop388" /></linearGradient><linearGradient
       id="linearGradient371"
       inkscape:collect="always"><stop
         style="stop-color:#e9b900;stop-opacity:1;"
         offset="0.29818183"
         id="stop383" /><stop
         style="stop-color:#ffdf63;stop-opacity:1;"
         offset="0.5"
         id="stop385" /><stop
         style="stop-color:#e9b900;stop-opacity:1;"
         offset="0.70363635"
         id="stop384" /></linearGradient><linearGradient
       id="linearGradient57"
       inkscape:collect="always"><stop
         style="stop-color:#cb8a00;stop-opacity:1;"
         offset="0.40000001"
         id="stop36" /><stop
         style="stop-color:#ffe662;stop-opacity:1;"
         offset="0.5"
         id="stop37" /><stop
         style="stop-color:#cb8a00;stop-opacity:1;"
         offset="0.60000002"
         id="stop38" /></linearGradient><linearGradient
       id="swatch15"
       inkscape:swatch="solid"><stop
         style="stop-color:#ffffff;stop-opacity:1;"
         offset="0"
         id="stop16" /></linearGradient><linearGradient
       inkscape:collect="always"
       xlink:href="#linearGradient371"
       id="linearGradient384"
       x1="10323.567"
       y1="-5502.6758"
       x2="11067.588"
       y2="-5323.6943"
       gradientUnits="userSpaceOnUse"
       gradientTransform="matrix(1.1391009,0,0,1.1391009,-1436.15,765.3377)" /><linearGradient
       inkscape:collect="always"
       xlink:href="#linearGradient387"
       id="linearGradient388"
       x1="11067.588"
       y1="-5498.1885"
       x2="11560.886"
       y2="-5323.6943"
       gradientUnits="userSpaceOnUse"
       gradientTransform="matrix(1.1391009,0,0,1.1391009,-1436.15,765.3377)" /><linearGradient
       inkscape:collect="always"
       xlink:href="#linearGradient57"
       id="linearGradient392"
       gradientUnits="userSpaceOnUse"
       gradientTransform="matrix(0,0.36012634,0.37522667,0,11728.861,-4194.6162)"
       x1="-3824.7219"
       y1="-619.15167"
       x2="-3339.365"
       y2="-138.87868" /><linearGradient
       inkscape:collect="always"
       xlink:href="#linearGradient395"
       id="linearGradient393"
       gradientUnits="userSpaceOnUse"
       gradientTransform="matrix(0,0.26190257,0.27288431,0,11996.75,-4569.0443)"
       x1="-3824.7219"
       y1="-619.15167"
       x2="-3339.365"
       y2="-138.87868" /><linearGradient
       inkscape:collect="always"
       xlink:href="#linearGradient395"
       id="linearGradient396"
       gradientUnits="userSpaceOnUse"
       gradientTransform="matrix(0,0.26190257,0.27288431,0,11601.214,-4329.0859)"
       x1="-3824.7219"
       y1="-619.15167"
       x2="-3339.365"
       y2="-138.87868" /><linearGradient
       inkscape:collect="always"
       xlink:href="#linearGradient57"
       id="linearGradient401"
       gradientUnits="userSpaceOnUse"
       gradientTransform="matrix(0,0.36012634,0.37522667,0,11960.196,-4012.1174)"
       x1="-3824.7219"
       y1="-619.15167"
       x2="-3339.365"
       y2="-138.87868" /><linearGradient
       inkscape:collect="always"
       xlink:href="#linearGradient404"
       id="linearGradient402"
       gradientUnits="userSpaceOnUse"
       gradientTransform="matrix(0,0.16484819,0.17176037,0,11701.905,-4733.1056)"
       x1="-3824.7219"
       y1="-619.15167"
       x2="-3339.365"
       y2="-138.87868" /><linearGradient
       inkscape:collect="always"
       xlink:href="#linearGradient404"
       id="linearGradient405"
       gradientUnits="userSpaceOnUse"
       gradientTransform="matrix(0,0.16484819,0.17176037,0,11823.241,-4912.2669)"
       x1="-3824.7219"
       y1="-619.15167"
       x2="-3339.365"
       y2="-138.87868" /></defs><g
     inkscape:label="Layer 1"
     inkscape:groupmode="layer"
     id="layer1"
     transform="translate(-10324.523,5573.7735)"><path
       id="path75-4-5"
       style="fill:url(#linearGradient392);fill-rule:evenodd;stroke-width:1.02928;stroke-linecap:round;stroke-linejoin:round"
       d="m 11593.153,-5573.7737 v 0.033 h -23.375 l 3.373,12.5843 -21.269,21.2687 7.785,29.0537 -21.269,21.2686 -29.054,-7.7846 -7.784,-29.0538 v -1e-4 l -5.012,-1.3428 v -20.1291 c 0,-14.3474 12.035,-25.8978 26.984,-25.8978 z m -96.614,46.0269 5.011,1.3428 v 1e-4 l 7.785,29.0538 29.054,7.7846 21.269,-21.2686 -7.785,-29.0538 21.269,-21.2686 -3.373,-12.5844 h 23.375 l -2.65,9.491 21.712,20.8384 v 0 l -7.947,28.4655 21.712,20.8384 29.659,-7.6276 7.947,-28.4655 13.173,-3.3876 v 54.4882 l -9.72,-2.6045 -21.269,21.2688 v 2e-4 l -29.054,-7.7849 -21.268,21.2687 7.785,29.0536 29.053,7.7851 3.458,12.9037 -92.244,-2e-4 1.371,-4.9095 v 0 l 29.66,-7.6274 7.946,-28.4656 -21.711,-20.8384 -29.66,7.6272 -21.711,-20.8382 -12.847,3.3036 z m 0,58.7889 12.847,-3.3036 21.712,20.8382 29.659,-7.6272 21.712,20.8384 -7.947,28.4656 -29.659,7.6274 v 0 l -1.371,4.9095 h -20.52 c -14.644,0 -26.433,-11.7888 -26.433,-26.4325 z m 46.952,71.7483 92.244,2e-4 h -92.244 z m 92.244,2e-4 -3.458,-12.9037 -29.053,-7.7851 -7.785,-29.0536 21.268,-21.2687 29.054,7.7849 v -2e-4 l 21.269,-21.2688 9.72,2.6045 v 55.9927 c 0,14.3475 -12.034,25.898 -26.983,25.898 z m 41.015,-136.3789 -13.173,3.3876 -7.947,28.4655 -29.659,7.6276 -21.712,-20.8384 7.947,-28.4655 v 0 l -21.712,-20.8384 2.65,-9.491 h 57.174 c 14.644,0 26.432,11.789 26.432,26.4327 z" /><path
       id="path75-4-5-9"
       style="fill:url(#linearGradient401);fill-rule:evenodd;stroke-width:1.02928;stroke-linecap:round;stroke-linejoin:round"
       d="m 11824.487,-5391.2749 v 0.033 h -23.374 l 3.372,12.5844 -21.269,21.2686 7.785,29.0537 -21.269,21.2686 -29.053,-7.7846 -7.785,-29.0538 v -1e-4 l -5.011,-1.3427 v -20.1292 c 0,-14.3474 12.034,-25.8978 26.983,-25.8978 z m -96.614,46.027 5.011,1.3427 v 1e-4 l 7.785,29.0538 29.054,7.7846 21.269,-21.2686 -7.785,-29.0537 21.269,-21.2686 -3.372,-12.5844 h 23.374 l -2.65,9.491 21.713,20.8384 v 0 l -7.948,28.4654 21.713,20.8384 29.658,-7.6276 7.948,-28.4655 13.172,-3.3876 v 54.4882 l -9.72,-2.6045 -21.269,21.2688 v 2e-4 l -29.053,-7.7849 -21.269,21.2687 7.785,29.0537 29.053,7.785 3.458,12.9037 -92.243,-2e-4 1.37,-4.9095 v 0 l 29.66,-7.6274 7.947,-28.4656 -21.712,-20.8384 -29.659,7.6272 -21.712,-20.8382 -12.847,3.3036 z m 0,58.7888 12.847,-3.3036 21.712,20.8382 29.659,-7.6272 21.712,20.8384 -7.946,28.4656 -29.66,7.6274 v 0 l -1.371,4.9095 h -20.52 c -14.644,0 -26.433,-11.7888 -26.433,-26.4324 z m 46.953,71.7483 92.243,2e-4 h -92.243 z m 92.243,2e-4 -3.458,-12.9037 -29.053,-7.785 -7.785,-29.0537 21.269,-21.2687 29.053,7.7849 v -2e-4 l 21.269,-21.2688 9.72,2.6045 v 55.9927 c 0,14.3475 -12.034,25.898 -26.983,25.898 z m 41.015,-136.3789 -13.172,3.3876 -7.948,28.4655 -29.658,7.6276 -21.713,-20.8384 7.948,-28.4654 v 0 l -21.713,-20.8384 2.65,-9.491 h 57.174 c 14.644,0 26.432,11.789 26.432,26.4326 z" /><path
       id="path75-4-5-7"
       style="fill:url(#linearGradient393);fill-rule:evenodd;stroke-width:0.74855;stroke-linecap:round;stroke-linejoin:round"
       d="m 11898.056,-5572.0392 v 0.023 h -17 l 2.453,9.1521 -15.468,15.4676 5.661,21.1294 -15.467,15.4677 -21.13,-5.6615 -5.661,-21.1293 v -2e-4 l -3.644,-0.9765 v -14.6389 c 0,-10.4342 8.752,-18.8342 19.624,-18.8342 z m -70.263,33.4731 3.644,0.9765 v 1e-4 l 5.662,21.1294 21.13,5.6615 15.468,-15.4677 -5.662,-21.1294 15.468,-15.4676 -2.452,-9.1521 h 16.999 l -1.927,6.9023 15.79,15.1548 v 0 l -5.78,20.7016 15.791,15.1548 21.568,-5.5473 5.781,-20.7015 9.579,-2.4637 v 39.6267 l -7.07,-1.8941 -15.467,15.4678 v 10e-5 l -21.13,-5.6616 -15.467,15.4677 5.662,21.1293 21.129,5.6617 2.515,9.3843 -67.084,-2e-4 0.996,-3.5704 v 0 l 21.57,-5.5471 5.779,-20.7016 -15.789,-15.1548 -21.57,5.5469 -15.79,-15.1546 -9.343,2.4026 z m 0,42.7544 9.344,-2.4026 15.79,15.1546 21.569,-5.5469 15.79,15.1548 -5.779,20.7016 -21.57,5.5471 v 0 l -0.997,3.5704 h -14.923 c -10.65,0 -19.224,-8.5734 -19.224,-19.223 z m 34.147,52.179 67.084,2e-4 h -67.084 z m 67.084,2e-4 -2.515,-9.3843 -21.129,-5.6617 -5.662,-21.1293 15.467,-15.4677 21.13,5.6616 v -10e-5 l 15.467,-15.4678 7.07,1.8941 v 40.7208 c 0,10.4342 -8.752,18.8344 -19.624,18.8344 z m 29.828,-99.1819 -9.579,2.4637 -5.781,20.7015 -21.568,5.5473 -15.791,-15.1548 5.78,-20.7016 v 0 l -15.79,-15.1548 1.927,-6.9023 h 41.58 c 10.649,0 19.222,8.5736 19.222,19.2233 z" /><path
       id="path75-4-5-7-2"
       style="fill:url(#linearGradient402);fill-rule:evenodd;stroke-width:0.471157;stroke-linecap:round;stroke-linejoin:round"
       d="m 11639.784,-5364.4163 v 0.015 h -10.7 l 1.544,5.7605 -9.735,9.7357 3.562,13.2994 -9.735,9.7358 -13.299,-3.5635 -3.563,-13.2993 v -2e-4 l -2.295,-0.6146 v -9.2141 c 0,-6.5676 5.509,-11.8547 12.353,-11.8547 z m -44.224,21.0689 2.293,0.6146 v 0 l 3.564,13.2994 13.3,3.5635 9.735,-9.7357 -3.563,-13.2994 9.735,-9.7357 -1.543,-5.7606 h 10.7 l -1.213,4.3446 9.938,9.5387 v 0 l -3.637,13.0301 9.939,9.5388 13.576,-3.4915 3.638,-13.0301 6.03,-1.5507 v 24.942 l -4.451,-1.1922 -9.735,9.7358 v 2e-4 l -13.3,-3.5636 -9.736,9.7357 3.564,13.2994 13.3,3.5636 1.583,5.9067 -42.225,-1e-4 0.627,-2.2473 v 0 l 13.577,-3.4915 3.637,-13.0301 -9.938,-9.5389 -13.577,3.4914 -9.938,-9.5387 -5.881,1.5123 z m 0,26.9107 5.88,-1.5123 9.939,9.5387 13.576,-3.4914 9.939,9.5389 -3.638,13.0301 -13.576,3.4915 v 0 l -0.628,2.2473 h -9.393 c -6.703,0 -12.099,-5.3963 -12.099,-12.0995 z m 21.492,32.8428 42.225,1e-4 h -42.225 z m 42.225,1e-4 -1.583,-5.9067 -13.3,-3.5636 -3.564,-13.2994 9.736,-9.7357 13.3,3.5636 v -2e-4 l 9.735,-9.7358 4.451,1.1922 v 25.6308 c 0,6.5676 -5.509,11.8548 -12.353,11.8548 z m 18.775,-62.4276 -6.03,1.5507 -3.638,13.0301 -13.576,3.4915 -9.939,-9.5388 3.637,-13.0301 v 0 l -9.938,-9.5387 1.213,-4.3446 h 26.171 c 6.703,0 12.1,5.3965 12.1,12.0996 z" /><path
       id="path75-4-5-7-2-7"
       style="fill:url(#linearGradient405);fill-rule:evenodd;stroke-width:0.471157;stroke-linecap:round;stroke-linejoin:round"
       d="m 11761.121,-5543.5776 v 0.015 h -10.7 l 1.544,5.7606 -9.736,9.7357 3.563,13.2994 -9.735,9.7357 -13.3,-3.5634 -3.563,-13.2994 v -1e-4 l -2.294,-0.6147 v -9.214 c 0,-6.5676 5.509,-11.8548 12.352,-11.8548 z m -44.225,21.0689 2.294,0.6146 v 0 l 3.563,13.2994 13.3,3.5635 9.735,-9.7358 -3.563,-13.2994 9.736,-9.7356 -1.543,-5.7606 h 10.699 l -1.213,4.3445 9.939,9.5388 v 0 l -3.638,13.0301 9.939,9.5388 13.576,-3.4916 3.638,-13.03 6.03,-1.5507 v 24.942 l -4.45,-1.1922 -9.736,9.7358 v 1e-4 l -13.299,-3.5636 -9.736,9.7358 3.564,13.2994 13.299,3.5636 1.583,5.9066 h -42.224 l 0.627,-2.2474 v 0 l 13.576,-3.4914 3.638,-13.0302 -9.938,-9.5388 -13.577,3.4913 -9.938,-9.5386 -5.881,1.5122 z m 0,26.9106 5.881,-1.5122 9.939,9.5386 13.576,-3.4913 9.939,9.5388 -3.638,13.0302 -13.577,3.4914 v 0 l -0.627,2.2474 h -9.393 c -6.704,0 -12.1,-5.3964 -12.1,-12.0995 z m 21.493,32.8429 h 42.224 z m 42.224,0 -1.583,-5.9066 -13.299,-3.5636 -3.564,-13.2994 9.736,-9.7358 13.299,3.5636 v -1e-4 l 9.736,-9.7358 4.45,1.1922 v 25.6307 c 0,6.5676 -5.509,11.8548 -12.352,11.8548 z m 18.775,-62.4275 -6.03,1.5507 -3.638,13.03 -13.576,3.4916 -9.939,-9.5388 3.638,-13.0301 v 0 l -9.939,-9.5388 1.213,-4.3445 h 26.171 c 6.704,0 12.1,5.3965 12.1,12.0996 z" /><path
       id="path75-4-5-7-1"
       style="fill:url(#linearGradient396);fill-rule:evenodd;stroke-width:0.74855;stroke-linecap:round;stroke-linejoin:round"
       d="m 11502.519,-5332.0808 v 0.023 h -16.999 l 2.452,9.1521 -15.467,15.4676 5.661,21.1294 -15.468,15.4677 -21.129,-5.6615 -5.661,-21.1293 v -1e-4 l -3.645,-0.9765 v -14.639 c 0,-10.4342 8.752,-18.8342 19.624,-18.8342 z m -70.262,33.4732 3.644,0.9765 v 0 l 5.661,21.1294 21.13,5.6615 15.468,-15.4677 -5.662,-21.1294 15.468,-15.4676 -2.452,-9.1521 h 16.999 l -1.927,6.9024 15.79,15.1548 v 0 l -5.78,20.7015 15.791,15.1548 21.569,-5.5472 5.78,-20.7016 9.58,-2.4636 v 39.6266 l -7.07,-1.8941 -15.468,15.4678 v 1e-4 l -21.129,-5.6616 -15.468,15.4677 5.662,21.1293 21.129,5.6618 2.515,9.3842 -67.084,-2e-4 0.996,-3.5704 v 0 l 21.571,-5.547 5.779,-20.7017 -15.79,-15.1548 -21.57,5.5469 -15.79,-15.1546 -9.343,2.4026 z m 0,42.7543 9.343,-2.4026 15.79,15.1546 21.569,-5.5469 15.79,15.1548 -5.779,20.7017 -21.569,5.547 v 0 l -0.997,3.5704 h -14.924 c -10.649,0 -19.223,-8.5734 -19.223,-19.223 z m 34.146,52.179 67.084,2e-4 h -67.084 z m 67.084,2e-4 -2.515,-9.3842 -21.129,-5.6618 -5.662,-21.1293 15.468,-15.4677 21.129,5.6616 v -1e-4 l 15.468,-15.4678 7.07,1.8941 v 40.7208 c 0,10.4342 -8.752,18.8344 -19.624,18.8344 z m 29.829,-99.1818 -9.58,2.4636 -5.78,20.7016 -21.569,5.5472 -15.791,-15.1548 5.78,-20.7015 v 0 l -15.79,-15.1548 1.927,-6.9024 h 41.58 c 10.65,0 19.223,8.5736 19.223,19.2233 z" /><path
       id="path360"
       style="font-size:50.8px;font-family:'Mark Pro';-inkscape-font-specification:'Mark Pro';fill:url(#linearGradient384);stroke-width:1.14076"
       d="m 10397.897,-5497.6537 v 94.6186 c 0,10.8053 -2.229,18.8739 -6.683,24.2034 -4.454,5.3295 -10.84,7.9945 -19.164,7.9945 -12.12,0 -22.045,-4.7462 -29.786,-14.2377 l -17.741,22.2318 c 11.606,14.1638 27.926,21.2468 48.953,21.2468 16.501,0 29.785,-5.0738 39.86,-15.2224 10.077,-10.2209 15.113,-24.6784 15.113,-43.3689 v -97.4661 z m 1059.977,1.2051 c -3.285,0 -6.019,1.1301 -8.209,3.3936 -2.19,2.1903 -3.289,4.9294 -3.289,8.2148 0,3.2854 1.099,6.0224 3.289,8.2126 2.19,2.1903 4.924,3.2863 8.209,3.2863 3.286,0 6.023,-1.096 8.214,-3.2863 2.263,-2.1902 3.398,-4.9272 3.398,-8.2126 0,-3.2854 -1.135,-6.0245 -3.398,-8.2148 -2.264,-2.2635 -5.002,-3.3936 -8.214,-3.3936 z m -947.179,43.1487 c -16.427,0 -30.081,5.329 -40.959,15.9885 -10.878,10.5861 -16.315,23.873 -16.315,39.862 0,15.9889 5.437,29.3142 16.315,39.9737 10.878,10.5861 24.532,15.8794 40.959,15.8794 16.501,0 30.19,-5.2933 41.068,-15.8794 10.952,-10.6595 16.427,-23.9848 16.427,-39.9737 0,-15.989 -5.475,-29.2759 -16.427,-39.862 -10.878,-10.6595 -24.567,-15.9885 -41.068,-15.9885 z m 0,26.6118 c 8.102,0 14.819,2.7369 20.149,8.2125 5.401,5.4758 8.106,12.4841 8.106,21.0262 0,8.542 -2.705,15.5505 -8.106,21.0261 -5.33,5.4757 -12.047,8.2149 -20.149,8.2149 -8.105,0 -14.823,-2.7392 -20.151,-8.2149 -5.329,-5.4756 -7.994,-12.4841 -7.994,-21.0261 0,-8.5421 2.665,-15.5504 7.994,-21.0262 5.328,-5.4756 12.046,-8.2125 20.151,-8.2125 z m 267.101,-26.6118 c -13.504,0 -23.472,4.8186 -29.897,14.4557 v -11.6083 h -27.705 v 106.1179 h 28.581 v -57.8226 c 0,-7.6659 2.01,-13.5443 6.023,-17.6329 4.091,-4.1615 9.528,-6.2406 16.32,-6.2406 6.424,0 12.193,1.1301 17.302,3.3932 l 4.272,-28.363 c -4.234,-1.5333 -9.2,-2.2994 -14.896,-2.2994 z m 93.418,0 c -13.947,0 -24.351,5.1101 -31.215,15.3315 v -12.4841 h -27.814 v 106.1179 h 28.585 v -58.1524 c 0,-7.666 2.113,-13.5783 6.347,-17.7398 4.239,-4.1616 9.602,-6.2428 16.104,-6.2428 6.57,0 11.641,2.0812 15.219,6.2428 3.652,4.0886 5.476,9.9286 5.476,17.5216 v 58.3706 h 28.581 v -67.5701 c 0,-12.2655 -3.867,-22.2303 -11.606,-29.8964 -7.666,-7.6659 -17.557,-11.4988 -29.677,-11.4988 z m 117.507,0 c -15.917,0 -28.839,5.1824 -38.769,15.5496 -9.93,10.3671 -14.893,23.9119 -14.893,40.6307 0,16.646 5.072,30.08 15.221,40.3009 10.222,10.1486 23.511,15.2224 39.864,15.2224 18.471,0 33.549,-5.3679 45.228,-16.1002 l -16.754,-18.3969 c -3.799,3.2125 -8.067,5.73 -12.815,7.5556 -4.742,1.7521 -9.416,2.6287 -14.016,2.6287 -7.084,0 -13.034,-1.8259 -17.85,-5.4765 -4.82,-3.6502 -7.959,-9.1625 -9.42,-16.5366 h 75.236 c 0.388,-2.7011 0.548,-5.9128 0.548,-9.6363 -0.09,-16.5731 -4.894,-30.0066 -14.458,-40.3009 -9.488,-10.2942 -21.863,-15.4405 -37.122,-15.4405 z m -0.215,24.6401 c 6.135,0 11.167,1.8621 15.111,5.5856 4.015,3.6506 6.683,8.8689 7.999,15.6586 h -46.983 c 1.311,-6.7165 3.975,-11.9351 7.994,-15.6586 4.013,-3.7235 9.308,-5.5856 15.879,-5.5856 z m -397.865,-21.7927 v 60.8884 c 0,6.4976 0.875,12.4484 2.626,17.8512 1.828,5.3296 4.272,9.8567 7.338,13.5801 3.138,3.6502 6.829,6.7532 11.063,9.3086 4.308,2.4822 8.907,4.306 13.796,5.4744 4.894,1.168 10.038,1.7535 15.441,1.7535 6.79,0 13.145,-0.9494 19.057,-2.8473 5.915,-1.8984 11.205,-4.7099 15.879,-8.4334 4.747,-3.7963 8.468,-8.834 11.171,-15.1128 2.699,-6.279 4.053,-13.4702 4.053,-21.5743 v -60.8884 h -28.477 v 58.3706 c 0,8.104 -1.971,14.1272 -5.912,18.0697 -3.94,3.8691 -9.201,5.8038 -15.771,5.8038 -6.572,0 -11.827,-1.9347 -15.768,-5.8038 -3.945,-3.9425 -5.915,-9.9657 -5.915,-18.0697 v -58.3706 z m 453.82,0 45.78,83.5586 -37.126,66.8019 h 31.323 l 81.148,-150.3605 h -31.324 l -28.253,54.5363 -29.129,-54.5363 z" /><path
       id="path359"
       style="font-size:50.8px;font-family:'Mark Pro';-inkscape-font-specification:'Mark Pro';fill:url(#linearGradient388);stroke-width:1.14076"
       d="m 11318.137,-5502.0342 v 157.6996 h 16.427 v -58.4797 c 0,-9.5642 3.031,-17.2302 9.089,-22.9982 6.135,-5.8404 13.688,-8.7606 22.67,-8.7606 9.49,0 16.828,2.7731 22.014,8.3217 5.256,5.4756 7.882,13.142 7.882,22.9982 v 58.9186 h 16.32 v -64.2839 c 0,-12.4845 -4.019,-22.5235 -12.048,-30.1165 -7.958,-7.5932 -18.362,-11.3899 -31.211,-11.3899 -6.864,0 -13.362,1.3513 -19.492,4.0529 -6.135,2.6283 -11.21,6.7889 -15.224,12.4836 v -68.4458 z m -147.188,4.3805 v 16.6456 h 53.227 v 136.6735 h 17.521 v -136.6735 h 53.223 v -16.6456 z m 384.612,47.5288 c -6.933,0 -13.508,1.3513 -19.712,4.0529 -6.205,2.7012 -11.28,6.9705 -15.225,12.8114 v -14.7835 h -16.202 v 103.7095 h 16.422 v -58.4797 c 0,-9.5642 3.031,-17.2302 9.094,-22.9982 6.13,-5.8404 13.688,-8.7606 22.669,-8.7606 9.49,0 16.825,2.7731 22.011,8.3217 5.256,5.4756 7.886,13.142 7.886,22.9982 v 58.9186 h 16.315 v -64.2839 c 0,-12.4845 -4.014,-22.5235 -12.047,-30.1165 -7.959,-7.5932 -18.359,-11.3899 -31.211,-11.3899 z m 123.862,0 c -14.676,0 -26.904,4.9652 -36.687,14.8948 -9.783,9.9289 -14.676,22.6687 -14.676,38.2196 0,15.5509 4.893,28.3273 14.676,38.3293 9.783,9.9294 22.011,14.8947 36.687,14.8947 16.134,0 28.473,-5.8784 37.015,-17.633 v 10.6236 c 0,11.8275 -3.545,20.9533 -10.624,27.3784 -7.01,6.4247 -16.28,9.6363 -27.814,9.6363 -13.581,0 -25.74,-4.0524 -36.471,-12.1564 l -7.227,13.1434 c 5.256,4.3805 11.753,7.7749 19.494,10.1842 7.812,2.4827 15.879,3.723 24.204,3.723 16.427,0 29.676,-4.6353 39.753,-13.9072 10.076,-9.1992 15.112,-22.0859 15.112,-38.6592 v -96.5907 h -16.427 v 15.5521 c -8.615,-11.7545 -20.955,-17.6329 -37.015,-17.6329 z m 1.858,15.331 c 10.589,0 19.316,3.6139 26.175,10.8419 6.937,7.2278 10.405,16.2093 10.405,26.9415 0,10.8784 -3.468,19.9302 -10.405,27.158 -6.859,7.1546 -15.586,10.7324 -26.175,10.7324 -10.804,0 -19.599,-3.614 -26.391,-10.8418 -6.79,-7.3008 -10.183,-16.3163 -10.183,-27.0486 0,-10.659 3.393,-19.602 10.183,-26.8299 6.792,-7.3012 15.587,-10.9535 26.391,-10.9535 z m -231.616,-13.2502 v 103.7095 h 16.423 v -103.7095 z" /></g></svg>
